<!DOCTYPE svg PUBLIC "-//W3C//DTD SVG 1.1//EN" "http://www.w3.org/Graphics/SVG/1.1/DTD/svg11.dtd">
<!-- Uploaded to: SVG Repo, www.svgrepo.com, Transformed by: SVG Repo Mixer Tools -->
<svg width="800px" height="800px" viewBox="0 0 64 64" xmlns="http://www.w3.org/2000/svg" xmlns:xlink="http://www.w3.org/1999/xlink" aria-hidden="true" role="img" class="iconify iconify--emojione" preserveAspectRatio="xMidYMid meet" fill="#000000">
<g id="SVGRepo_bgCarrier" stroke-width="0"/>
<g id="SVGRepo_tracerCarrier" stroke-linecap="round" stroke-linejoin="round"/>
<g id="SVGRepo_iconCarrier">
<path d="M26.8 61.5L36 56l-10-6l10-6l-10-6l10-6l-10-6l10-6l-10-6l10-6l-9.2-5.5C12.7 4.9 2 17.2 2 32s10.7 27.1 24.8 29.5z" fill="#f9f9f9"/>
<path d="M32 2c-1.8 0-3.5.2-5.2.5L36 8l-10 6l10 6l-10 6l10 6l-10 6l10 6l-10 6l10 6l-9.2 5.5c1.7.3 3.4.5 5.2.5c16.6 0 30-13.4 30-30S48.6 2 32 2" fill="#c94747"/>
</g>
</svg>