<!DOCTYPE svg PUBLIC "-//W3C//DTD SVG 1.1//EN" "http://www.w3.org/Graphics/SVG/1.1/DTD/svg11.dtd">
<!-- Uploaded to: SVG Repo, www.svgrepo.com, Transformed by: SVG Repo Mixer Tools -->
<svg height="800px" width="800px" version="1.1" id="Layer_1" xmlns="http://www.w3.org/2000/svg" xmlns:xlink="http://www.w3.org/1999/xlink" viewBox="0 0 512 512" xml:space="preserve" fill="#000000">
<g id="SVGRepo_bgCarrier" stroke-width="0"/>
<g id="SVGRepo_tracerCarrier" stroke-linecap="round" stroke-linejoin="round"/>
<g id="SVGRepo_iconCarrier"> <path style="fill:#FFDA44;" d="M345.043,15.923C317.31,5.633,287.314,0,256,0s-61.31,5.633-89.043,15.923L144.696,256 l22.261,240.077C194.69,506.368,224.686,512,256,512s61.31-5.632,89.043-15.923L367.304,256L345.043,15.923z"/> <path style="fill:#D80027;" d="M512,256c0-110.07-69.472-203.906-166.957-240.076v480.155C442.528,459.906,512,366.072,512,256z"/> <path d="M0,256c0,110.072,69.472,203.906,166.957,240.078V15.924C69.472,52.094,0,145.93,0,256z"/> </g>
</svg>